<?xml version="1.0" encoding="utf-8" standalone="no"?>
<!DOCTYPE svg PUBLIC "-//W3C//DTD SVG 1.1//EN"
  "http://www.w3.org/Graphics/SVG/1.1/DTD/svg11.dtd">
<svg xmlns:xlink="http://www.w3.org/1999/xlink" width="1447.92pt" height="806.4pt" viewBox="0 0 1447.92 806.4" xmlns="http://www.w3.org/2000/svg" version="1.1">
 <metadata>
  <rdf:RDF xmlns:dc="http://purl.org/dc/elements/1.1/" xmlns:cc="http://creativecommons.org/ns#" xmlns:rdf="http://www.w3.org/1999/02/22-rdf-syntax-ns#">
   <cc:Work>
    <dc:type rdf:resource="http://purl.org/dc/dcmitype/StillImage"/>
    <dc:date>2025-04-06T21:22:31.520035</dc:date>
    <dc:format>image/svg+xml</dc:format>
    <dc:creator>
     <cc:Agent>
      <dc:title>Matplotlib v3.10.0, https://matplotlib.org/</dc:title>
     </cc:Agent>
    </dc:creator>
   </cc:Work>
  </rdf:RDF>
 </metadata>
 <defs>
  <style type="text/css">*{stroke-linejoin: round; stroke-linecap: butt}</style>
 </defs>
 <g id="figure_1">
  <g id="patch_1">
   <path d="M 0 806.4 
L 1447.92 806.4 
L 1447.92 0 
L 0 0 
z
" style="fill: #ffffff"/>
  </g>
  <g id="axes_1">
   <g id="patch_2">
    <path d="M 180.99 717.696 
L 1303.128 717.696 
L 1303.128 96.768 
L 180.99 96.768 
z
" style="fill: #ffffff"/>
   </g>
   <g id="matplotlib.axis_1">
    <g id="xtick_1">
     <g id="line2d_1">
      <defs>
       <path id="m2ab8d65f57" d="M 0 0 
L 0 3.5 
" style="stroke: #000000; stroke-width: 0.8"/>
      </defs>
      <g>
       <use xlink:href="#m2ab8d65f57" x="260.333091" y="717.696" style="stroke: #000000; stroke-width: 0.8"/>
      </g>
     </g>
     <g id="text_1">
      <!-- 25 -->
      <g transform="translate(253.970591 732.294437) scale(0.1 -0.1)">
       <defs>
        <path id="DejaVuSans-32" d="M 1228 531 
L 3431 531 
L 3431 0 
L 469 0 
L 469 531 
Q 828 903 1448 1529 
Q 2069 2156 2228 2338 
Q 2531 2678 2651 2914 
Q 2772 3150 2772 3378 
Q 2772 3750 2511 3984 
Q 2250 4219 1831 4219 
Q 1534 4219 1204 4116 
Q 875 4013 500 3803 
L 500 4441 
Q 881 4594 1212 4672 
Q 1544 4750 1819 4750 
Q 2544 4750 2975 4387 
Q 3406 4025 3406 3419 
Q 3406 3131 3298 2873 
Q 3191 2616 2906 2266 
Q 2828 2175 2409 1742 
Q 1991 1309 1228 531 
z
" transform="scale(0.015625)"/>
        <path id="DejaVuSans-35" d="M 691 4666 
L 3169 4666 
L 3169 4134 
L 1269 4134 
L 1269 2991 
Q 1406 3038 1543 3061 
Q 1681 3084 1819 3084 
Q 2600 3084 3056 2656 
Q 3513 2228 3513 1497 
Q 3513 744 3044 326 
Q 2575 -91 1722 -91 
Q 1428 -91 1123 -41 
Q 819 9 494 109 
L 494 744 
Q 775 591 1075 516 
Q 1375 441 1709 441 
Q 2250 441 2565 725 
Q 2881 1009 2881 1497 
Q 2881 1984 2565 2268 
Q 2250 2553 1709 2553 
Q 1456 2553 1204 2497 
Q 953 2441 691 2322 
L 691 4666 
z
" transform="scale(0.015625)"/>
       </defs>
       <use xlink:href="#DejaVuSans-32"/>
       <use xlink:href="#DejaVuSans-35" transform="translate(63.623047 0)"/>
      </g>
     </g>
    </g>
    <g id="xtick_2">
     <g id="line2d_2">
      <g>
       <use xlink:href="#m2ab8d65f57" x="402.017182" y="717.696" style="stroke: #000000; stroke-width: 0.8"/>
      </g>
     </g>
     <g id="text_2">
      <!-- 50 -->
      <g transform="translate(395.654682 732.294437) scale(0.1 -0.1)">
       <defs>
        <path id="DejaVuSans-30" d="M 2034 4250 
Q 1547 4250 1301 3770 
Q 1056 3291 1056 2328 
Q 1056 1369 1301 889 
Q 1547 409 2034 409 
Q 2525 409 2770 889 
Q 3016 1369 3016 2328 
Q 3016 3291 2770 3770 
Q 2525 4250 2034 4250 
z
M 2034 4750 
Q 2819 4750 3233 4129 
Q 3647 3509 3647 2328 
Q 3647 1150 3233 529 
Q 2819 -91 2034 -91 
Q 1250 -91 836 529 
Q 422 1150 422 2328 
Q 422 3509 836 4129 
Q 1250 4750 2034 4750 
z
" transform="scale(0.015625)"/>
       </defs>
       <use xlink:href="#DejaVuSans-35"/>
       <use xlink:href="#DejaVuSans-30" transform="translate(63.623047 0)"/>
      </g>
     </g>
    </g>
    <g id="xtick_3">
     <g id="line2d_3">
      <g>
       <use xlink:href="#m2ab8d65f57" x="543.701273" y="717.696" style="stroke: #000000; stroke-width: 0.8"/>
      </g>
     </g>
     <g id="text_3">
      <!-- 75 -->
      <g transform="translate(537.338773 732.294437) scale(0.1 -0.1)">
       <defs>
        <path id="DejaVuSans-37" d="M 525 4666 
L 3525 4666 
L 3525 4397 
L 1831 0 
L 1172 0 
L 2766 4134 
L 525 4134 
L 525 4666 
z
" transform="scale(0.015625)"/>
       </defs>
       <use xlink:href="#DejaVuSans-37"/>
       <use xlink:href="#DejaVuSans-35" transform="translate(63.623047 0)"/>
      </g>
     </g>
    </g>
    <g id="xtick_4">
     <g id="line2d_4">
      <g>
       <use xlink:href="#m2ab8d65f57" x="685.385364" y="717.696" style="stroke: #000000; stroke-width: 0.8"/>
      </g>
     </g>
     <g id="text_4">
      <!-- 100 -->
      <g transform="translate(675.841614 732.294437) scale(0.1 -0.1)">
       <defs>
        <path id="DejaVuSans-31" d="M 794 531 
L 1825 531 
L 1825 4091 
L 703 3866 
L 703 4441 
L 1819 4666 
L 2450 4666 
L 2450 531 
L 3481 531 
L 3481 0 
L 794 0 
L 794 531 
z
" transform="scale(0.015625)"/>
       </defs>
       <use xlink:href="#DejaVuSans-31"/>
       <use xlink:href="#DejaVuSans-30" transform="translate(63.623047 0)"/>
       <use xlink:href="#DejaVuSans-30" transform="translate(127.246094 0)"/>
      </g>
     </g>
    </g>
    <g id="xtick_5">
     <g id="line2d_5">
      <g>
       <use xlink:href="#m2ab8d65f57" x="827.069455" y="717.696" style="stroke: #000000; stroke-width: 0.8"/>
      </g>
     </g>
     <g id="text_5">
      <!-- 125 -->
      <g transform="translate(817.525705 732.294437) scale(0.1 -0.1)">
       <use xlink:href="#DejaVuSans-31"/>
       <use xlink:href="#DejaVuSans-32" transform="translate(63.623047 0)"/>
       <use xlink:href="#DejaVuSans-35" transform="translate(127.246094 0)"/>
      </g>
     </g>
    </g>
    <g id="xtick_6">
     <g id="line2d_6">
      <g>
       <use xlink:href="#m2ab8d65f57" x="968.753545" y="717.696" style="stroke: #000000; stroke-width: 0.8"/>
      </g>
     </g>
     <g id="text_6">
      <!-- 150 -->
      <g transform="translate(959.209795 732.294437) scale(0.1 -0.1)">
       <use xlink:href="#DejaVuSans-31"/>
       <use xlink:href="#DejaVuSans-35" transform="translate(63.623047 0)"/>
       <use xlink:href="#DejaVuSans-30" transform="translate(127.246094 0)"/>
      </g>
     </g>
    </g>
    <g id="xtick_7">
     <g id="line2d_7">
      <g>
       <use xlink:href="#m2ab8d65f57" x="1110.437636" y="717.696" style="stroke: #000000; stroke-width: 0.8"/>
      </g>
     </g>
     <g id="text_7">
      <!-- 175 -->
      <g transform="translate(1100.893886 732.294437) scale(0.1 -0.1)">
       <use xlink:href="#DejaVuSans-31"/>
       <use xlink:href="#DejaVuSans-37" transform="translate(63.623047 0)"/>
       <use xlink:href="#DejaVuSans-35" transform="translate(127.246094 0)"/>
      </g>
     </g>
    </g>
    <g id="xtick_8">
     <g id="line2d_8">
      <g>
       <use xlink:href="#m2ab8d65f57" x="1252.121727" y="717.696" style="stroke: #000000; stroke-width: 0.8"/>
      </g>
     </g>
     <g id="text_8">
      <!-- 200 -->
      <g transform="translate(1242.577977 732.294437) scale(0.1 -0.1)">
       <use xlink:href="#DejaVuSans-32"/>
       <use xlink:href="#DejaVuSans-30" transform="translate(63.623047 0)"/>
       <use xlink:href="#DejaVuSans-30" transform="translate(127.246094 0)"/>
      </g>
     </g>
    </g>
    <g id="text_9">
     <!-- Number of Trees -->
     <g transform="translate(700.958219 745.972562) scale(0.1 -0.1)">
      <defs>
       <path id="DejaVuSans-4e" d="M 628 4666 
L 1478 4666 
L 3547 763 
L 3547 4666 
L 4159 4666 
L 4159 0 
L 3309 0 
L 1241 3903 
L 1241 0 
L 628 0 
L 628 4666 
z
" transform="scale(0.015625)"/>
       <path id="DejaVuSans-75" d="M 544 1381 
L 544 3500 
L 1119 3500 
L 1119 1403 
Q 1119 906 1312 657 
Q 1506 409 1894 409 
Q 2359 409 2629 706 
Q 2900 1003 2900 1516 
L 2900 3500 
L 3475 3500 
L 3475 0 
L 2900 0 
L 2900 538 
Q 2691 219 2414 64 
Q 2138 -91 1772 -91 
Q 1169 -91 856 284 
Q 544 659 544 1381 
z
M 1991 3584 
L 1991 3584 
z
" transform="scale(0.015625)"/>
       <path id="DejaVuSans-6d" d="M 3328 2828 
Q 3544 3216 3844 3400 
Q 4144 3584 4550 3584 
Q 5097 3584 5394 3201 
Q 5691 2819 5691 2113 
L 5691 0 
L 5113 0 
L 5113 2094 
Q 5113 2597 4934 2840 
Q 4756 3084 4391 3084 
Q 3944 3084 3684 2787 
Q 3425 2491 3425 1978 
L 3425 0 
L 2847 0 
L 2847 2094 
Q 2847 2600 2669 2842 
Q 2491 3084 2119 3084 
Q 1678 3084 1418 2786 
Q 1159 2488 1159 1978 
L 1159 0 
L 581 0 
L 581 3500 
L 1159 3500 
L 1159 2956 
Q 1356 3278 1631 3431 
Q 1906 3584 2284 3584 
Q 2666 3584 2933 3390 
Q 3200 3197 3328 2828 
z
" transform="scale(0.015625)"/>
       <path id="DejaVuSans-62" d="M 3116 1747 
Q 3116 2381 2855 2742 
Q 2594 3103 2138 3103 
Q 1681 3103 1420 2742 
Q 1159 2381 1159 1747 
Q 1159 1113 1420 752 
Q 1681 391 2138 391 
Q 2594 391 2855 752 
Q 3116 1113 3116 1747 
z
M 1159 2969 
Q 1341 3281 1617 3432 
Q 1894 3584 2278 3584 
Q 2916 3584 3314 3078 
Q 3713 2572 3713 1747 
Q 3713 922 3314 415 
Q 2916 -91 2278 -91 
Q 1894 -91 1617 61 
Q 1341 213 1159 525 
L 1159 0 
L 581 0 
L 581 4863 
L 1159 4863 
L 1159 2969 
z
" transform="scale(0.015625)"/>
       <path id="DejaVuSans-65" d="M 3597 1894 
L 3597 1613 
L 953 1613 
Q 991 1019 1311 708 
Q 1631 397 2203 397 
Q 2534 397 2845 478 
Q 3156 559 3463 722 
L 3463 178 
Q 3153 47 2828 -22 
Q 2503 -91 2169 -91 
Q 1331 -91 842 396 
Q 353 884 353 1716 
Q 353 2575 817 3079 
Q 1281 3584 2069 3584 
Q 2775 3584 3186 3129 
Q 3597 2675 3597 1894 
z
M 3022 2063 
Q 3016 2534 2758 2815 
Q 2500 3097 2075 3097 
Q 1594 3097 1305 2825 
Q 1016 2553 972 2059 
L 3022 2063 
z
" transform="scale(0.015625)"/>
       <path id="DejaVuSans-72" d="M 2631 2963 
Q 2534 3019 2420 3045 
Q 2306 3072 2169 3072 
Q 1681 3072 1420 2755 
Q 1159 2438 1159 1844 
L 1159 0 
L 581 0 
L 581 3500 
L 1159 3500 
L 1159 2956 
Q 1341 3275 1631 3429 
Q 1922 3584 2338 3584 
Q 2397 3584 2469 3576 
Q 2541 3569 2628 3553 
L 2631 2963 
z
" transform="scale(0.015625)"/>
       <path id="DejaVuSans-20" transform="scale(0.015625)"/>
       <path id="DejaVuSans-6f" d="M 1959 3097 
Q 1497 3097 1228 2736 
Q 959 2375 959 1747 
Q 959 1119 1226 758 
Q 1494 397 1959 397 
Q 2419 397 2687 759 
Q 2956 1122 2956 1747 
Q 2956 2369 2687 2733 
Q 2419 3097 1959 3097 
z
M 1959 3584 
Q 2709 3584 3137 3096 
Q 3566 2609 3566 1747 
Q 3566 888 3137 398 
Q 2709 -91 1959 -91 
Q 1206 -91 779 398 
Q 353 888 353 1747 
Q 353 2609 779 3096 
Q 1206 3584 1959 3584 
z
" transform="scale(0.015625)"/>
       <path id="DejaVuSans-66" d="M 2375 4863 
L 2375 4384 
L 1825 4384 
Q 1516 4384 1395 4259 
Q 1275 4134 1275 3809 
L 1275 3500 
L 2222 3500 
L 2222 3053 
L 1275 3053 
L 1275 0 
L 697 0 
L 697 3053 
L 147 3053 
L 147 3500 
L 697 3500 
L 697 3744 
Q 697 4328 969 4595 
Q 1241 4863 1831 4863 
L 2375 4863 
z
" transform="scale(0.015625)"/>
       <path id="DejaVuSans-54" d="M -19 4666 
L 3928 4666 
L 3928 4134 
L 2272 4134 
L 2272 0 
L 1638 0 
L 1638 4134 
L -19 4134 
L -19 4666 
z
" transform="scale(0.015625)"/>
       <path id="DejaVuSans-73" d="M 2834 3397 
L 2834 2853 
Q 2591 2978 2328 3040 
Q 2066 3103 1784 3103 
Q 1356 3103 1142 2972 
Q 928 2841 928 2578 
Q 928 2378 1081 2264 
Q 1234 2150 1697 2047 
L 1894 2003 
Q 2506 1872 2764 1633 
Q 3022 1394 3022 966 
Q 3022 478 2636 193 
Q 2250 -91 1575 -91 
Q 1294 -91 989 -36 
Q 684 19 347 128 
L 347 722 
Q 666 556 975 473 
Q 1284 391 1588 391 
Q 1994 391 2212 530 
Q 2431 669 2431 922 
Q 2431 1156 2273 1281 
Q 2116 1406 1581 1522 
L 1381 1569 
Q 847 1681 609 1914 
Q 372 2147 372 2553 
Q 372 3047 722 3315 
Q 1072 3584 1716 3584 
Q 2034 3584 2315 3537 
Q 2597 3491 2834 3397 
z
" transform="scale(0.015625)"/>
      </defs>
      <use xlink:href="#DejaVuSans-4e"/>
      <use xlink:href="#DejaVuSans-75" transform="translate(74.804688 0)"/>
      <use xlink:href="#DejaVuSans-6d" transform="translate(138.183594 0)"/>
      <use xlink:href="#DejaVuSans-62" transform="translate(235.595703 0)"/>
      <use xlink:href="#DejaVuSans-65" transform="translate(299.072266 0)"/>
      <use xlink:href="#DejaVuSans-72" transform="translate(360.595703 0)"/>
      <use xlink:href="#DejaVuSans-20" transform="translate(401.708984 0)"/>
      <use xlink:href="#DejaVuSans-6f" transform="translate(433.496094 0)"/>
      <use xlink:href="#DejaVuSans-66" transform="translate(494.677734 0)"/>
      <use xlink:href="#DejaVuSans-20" transform="translate(529.882812 0)"/>
      <use xlink:href="#DejaVuSans-54" transform="translate(561.669922 0)"/>
      <use xlink:href="#DejaVuSans-72" transform="translate(608.003906 0)"/>
      <use xlink:href="#DejaVuSans-65" transform="translate(646.867188 0)"/>
      <use xlink:href="#DejaVuSans-65" transform="translate(708.390625 0)"/>
      <use xlink:href="#DejaVuSans-73" transform="translate(769.914062 0)"/>
     </g>
    </g>
   </g>
   <g id="matplotlib.axis_2">
    <g id="ytick_1">
     <g id="line2d_9">
      <defs>
       <path id="maab5729648" d="M 0 0 
L -3.5 0 
" style="stroke: #000000; stroke-width: 0.8"/>
      </defs>
      <g>
       <use xlink:href="#maab5729648" x="180.99" y="712.812867" style="stroke: #000000; stroke-width: 0.8"/>
      </g>
     </g>
     <g id="text_10">
      <!-- 0.82 -->
      <g transform="translate(151.724375 716.612086) scale(0.1 -0.1)">
       <defs>
        <path id="DejaVuSans-2e" d="M 684 794 
L 1344 794 
L 1344 0 
L 684 0 
L 684 794 
z
" transform="scale(0.015625)"/>
        <path id="DejaVuSans-38" d="M 2034 2216 
Q 1584 2216 1326 1975 
Q 1069 1734 1069 1313 
Q 1069 891 1326 650 
Q 1584 409 2034 409 
Q 2484 409 2743 651 
Q 3003 894 3003 1313 
Q 3003 1734 2745 1975 
Q 2488 2216 2034 2216 
z
M 1403 2484 
Q 997 2584 770 2862 
Q 544 3141 544 3541 
Q 544 4100 942 4425 
Q 1341 4750 2034 4750 
Q 2731 4750 3128 4425 
Q 3525 4100 3525 3541 
Q 3525 3141 3298 2862 
Q 3072 2584 2669 2484 
Q 3125 2378 3379 2068 
Q 3634 1759 3634 1313 
Q 3634 634 3220 271 
Q 2806 -91 2034 -91 
Q 1263 -91 848 271 
Q 434 634 434 1313 
Q 434 1759 690 2068 
Q 947 2378 1403 2484 
z
M 1172 3481 
Q 1172 3119 1398 2916 
Q 1625 2713 2034 2713 
Q 2441 2713 2670 2916 
Q 2900 3119 2900 3481 
Q 2900 3844 2670 4047 
Q 2441 4250 2034 4250 
Q 1625 4250 1398 4047 
Q 1172 3844 1172 3481 
z
" transform="scale(0.015625)"/>
       </defs>
       <use xlink:href="#DejaVuSans-30"/>
       <use xlink:href="#DejaVuSans-2e" transform="translate(63.623047 0)"/>
       <use xlink:href="#DejaVuSans-38" transform="translate(95.410156 0)"/>
       <use xlink:href="#DejaVuSans-32" transform="translate(159.033203 0)"/>
      </g>
     </g>
    </g>
    <g id="ytick_2">
     <g id="line2d_10">
      <g>
       <use xlink:href="#maab5729648" x="180.99" y="585.182839" style="stroke: #000000; stroke-width: 0.8"/>
      </g>
     </g>
     <g id="text_11">
      <!-- 0.83 -->
      <g transform="translate(151.724375 588.982058) scale(0.1 -0.1)">
       <defs>
        <path id="DejaVuSans-33" d="M 2597 2516 
Q 3050 2419 3304 2112 
Q 3559 1806 3559 1356 
Q 3559 666 3084 287 
Q 2609 -91 1734 -91 
Q 1441 -91 1130 -33 
Q 819 25 488 141 
L 488 750 
Q 750 597 1062 519 
Q 1375 441 1716 441 
Q 2309 441 2620 675 
Q 2931 909 2931 1356 
Q 2931 1769 2642 2001 
Q 2353 2234 1838 2234 
L 1294 2234 
L 1294 2753 
L 1863 2753 
Q 2328 2753 2575 2939 
Q 2822 3125 2822 3475 
Q 2822 3834 2567 4026 
Q 2313 4219 1838 4219 
Q 1578 4219 1281 4162 
Q 984 4106 628 3988 
L 628 4550 
Q 988 4650 1302 4700 
Q 1616 4750 1894 4750 
Q 2613 4750 3031 4423 
Q 3450 4097 3450 3541 
Q 3450 3153 3228 2886 
Q 3006 2619 2597 2516 
z
" transform="scale(0.015625)"/>
       </defs>
       <use xlink:href="#DejaVuSans-30"/>
       <use xlink:href="#DejaVuSans-2e" transform="translate(63.623047 0)"/>
       <use xlink:href="#DejaVuSans-38" transform="translate(95.410156 0)"/>
       <use xlink:href="#DejaVuSans-33" transform="translate(159.033203 0)"/>
      </g>
     </g>
    </g>
    <g id="ytick_3">
     <g id="line2d_11">
      <g>
       <use xlink:href="#maab5729648" x="180.99" y="457.552811" style="stroke: #000000; stroke-width: 0.8"/>
      </g>
     </g>
     <g id="text_12">
      <!-- 0.84 -->
      <g transform="translate(151.724375 461.35203) scale(0.1 -0.1)">
       <defs>
        <path id="DejaVuSans-34" d="M 2419 4116 
L 825 1625 
L 2419 1625 
L 2419 4116 
z
M 2253 4666 
L 3047 4666 
L 3047 1625 
L 3713 1625 
L 3713 1100 
L 3047 1100 
L 3047 0 
L 2419 0 
L 2419 1100 
L 313 1100 
L 313 1709 
L 2253 4666 
z
" transform="scale(0.015625)"/>
       </defs>
       <use xlink:href="#DejaVuSans-30"/>
       <use xlink:href="#DejaVuSans-2e" transform="translate(63.623047 0)"/>
       <use xlink:href="#DejaVuSans-38" transform="translate(95.410156 0)"/>
       <use xlink:href="#DejaVuSans-34" transform="translate(159.033203 0)"/>
      </g>
     </g>
    </g>
    <g id="ytick_4">
     <g id="line2d_12">
      <g>
       <use xlink:href="#maab5729648" x="180.99" y="329.922783" style="stroke: #000000; stroke-width: 0.8"/>
      </g>
     </g>
     <g id="text_13">
      <!-- 0.85 -->
      <g transform="translate(151.724375 333.722001) scale(0.1 -0.1)">
       <use xlink:href="#DejaVuSans-30"/>
       <use xlink:href="#DejaVuSans-2e" transform="translate(63.623047 0)"/>
       <use xlink:href="#DejaVuSans-38" transform="translate(95.410156 0)"/>
       <use xlink:href="#DejaVuSans-35" transform="translate(159.033203 0)"/>
      </g>
     </g>
    </g>
    <g id="ytick_5">
     <g id="line2d_13">
      <g>
       <use xlink:href="#maab5729648" x="180.99" y="202.292754" style="stroke: #000000; stroke-width: 0.8"/>
      </g>
     </g>
     <g id="text_14">
      <!-- 0.86 -->
      <g transform="translate(151.724375 206.091973) scale(0.1 -0.1)">
       <defs>
        <path id="DejaVuSans-36" d="M 2113 2584 
Q 1688 2584 1439 2293 
Q 1191 2003 1191 1497 
Q 1191 994 1439 701 
Q 1688 409 2113 409 
Q 2538 409 2786 701 
Q 3034 994 3034 1497 
Q 3034 2003 2786 2293 
Q 2538 2584 2113 2584 
z
M 3366 4563 
L 3366 3988 
Q 3128 4100 2886 4159 
Q 2644 4219 2406 4219 
Q 1781 4219 1451 3797 
Q 1122 3375 1075 2522 
Q 1259 2794 1537 2939 
Q 1816 3084 2150 3084 
Q 2853 3084 3261 2657 
Q 3669 2231 3669 1497 
Q 3669 778 3244 343 
Q 2819 -91 2113 -91 
Q 1303 -91 875 529 
Q 447 1150 447 2328 
Q 447 3434 972 4092 
Q 1497 4750 2381 4750 
Q 2619 4750 2861 4703 
Q 3103 4656 3366 4563 
z
" transform="scale(0.015625)"/>
       </defs>
       <use xlink:href="#DejaVuSans-30"/>
       <use xlink:href="#DejaVuSans-2e" transform="translate(63.623047 0)"/>
       <use xlink:href="#DejaVuSans-38" transform="translate(95.410156 0)"/>
       <use xlink:href="#DejaVuSans-36" transform="translate(159.033203 0)"/>
      </g>
     </g>
    </g>
    <g id="text_15">
     <!-- Accuracy -->
     <g transform="translate(145.644688 430.060125) rotate(-90) scale(0.1 -0.1)">
      <defs>
       <path id="DejaVuSans-41" d="M 2188 4044 
L 1331 1722 
L 3047 1722 
L 2188 4044 
z
M 1831 4666 
L 2547 4666 
L 4325 0 
L 3669 0 
L 3244 1197 
L 1141 1197 
L 716 0 
L 50 0 
L 1831 4666 
z
" transform="scale(0.015625)"/>
       <path id="DejaVuSans-63" d="M 3122 3366 
L 3122 2828 
Q 2878 2963 2633 3030 
Q 2388 3097 2138 3097 
Q 1578 3097 1268 2742 
Q 959 2388 959 1747 
Q 959 1106 1268 751 
Q 1578 397 2138 397 
Q 2388 397 2633 464 
Q 2878 531 3122 666 
L 3122 134 
Q 2881 22 2623 -34 
Q 2366 -91 2075 -91 
Q 1284 -91 818 406 
Q 353 903 353 1747 
Q 353 2603 823 3093 
Q 1294 3584 2113 3584 
Q 2378 3584 2631 3529 
Q 2884 3475 3122 3366 
z
" transform="scale(0.015625)"/>
       <path id="DejaVuSans-61" d="M 2194 1759 
Q 1497 1759 1228 1600 
Q 959 1441 959 1056 
Q 959 750 1161 570 
Q 1363 391 1709 391 
Q 2188 391 2477 730 
Q 2766 1069 2766 1631 
L 2766 1759 
L 2194 1759 
z
M 3341 1997 
L 3341 0 
L 2766 0 
L 2766 531 
Q 2569 213 2275 61 
Q 1981 -91 1556 -91 
Q 1019 -91 701 211 
Q 384 513 384 1019 
Q 384 1609 779 1909 
Q 1175 2209 1959 2209 
L 2766 2209 
L 2766 2266 
Q 2766 2663 2505 2880 
Q 2244 3097 1772 3097 
Q 1472 3097 1187 3025 
Q 903 2953 641 2809 
L 641 3341 
Q 956 3463 1253 3523 
Q 1550 3584 1831 3584 
Q 2591 3584 2966 3190 
Q 3341 2797 3341 1997 
z
" transform="scale(0.015625)"/>
       <path id="DejaVuSans-79" d="M 2059 -325 
Q 1816 -950 1584 -1140 
Q 1353 -1331 966 -1331 
L 506 -1331 
L 506 -850 
L 844 -850 
Q 1081 -850 1212 -737 
Q 1344 -625 1503 -206 
L 1606 56 
L 191 3500 
L 800 3500 
L 1894 763 
L 2988 3500 
L 3597 3500 
L 2059 -325 
z
" transform="scale(0.015625)"/>
      </defs>
      <use xlink:href="#DejaVuSans-41"/>
      <use xlink:href="#DejaVuSans-63" transform="translate(66.658203 0)"/>
      <use xlink:href="#DejaVuSans-63" transform="translate(121.638672 0)"/>
      <use xlink:href="#DejaVuSans-75" transform="translate(176.619141 0)"/>
      <use xlink:href="#DejaVuSans-72" transform="translate(239.998047 0)"/>
      <use xlink:href="#DejaVuSans-61" transform="translate(281.111328 0)"/>
      <use xlink:href="#DejaVuSans-63" transform="translate(342.390625 0)"/>
      <use xlink:href="#DejaVuSans-79" transform="translate(397.371094 0)"/>
     </g>
    </g>
   </g>
   <g id="line2d_14">
    <path d="M 231.996273 569.720996 
L 345.343545 566.758957 
L 458.690818 569.297847 
L 572.038091 560.41173 
L 685.385364 652.658087 
L 798.732636 654.350681 
L 912.079909 662.813649 
L 1025.427182 633.616408 
L 1138.774455 662.813649 
L 1252.121727 659.85161 
" clip-path="url(#pabcaadc7e7)" style="fill: none; stroke: #1f77b4; stroke-width: 1.5; stroke-linecap: square"/>
   </g>
   <g id="line2d_15">
    <path d="M 231.996273 594.261065 
L 345.343545 558.292888 
L 458.690818 572.257852 
L 572.038091 565.064764 
L 685.385364 637.422191 
L 798.732636 652.655703 
L 912.079909 662.387499 
L 1025.427182 636.575487 
L 1138.774455 663.65766 
L 1252.121727 660.695355 
" clip-path="url(#pabcaadc7e7)" style="fill: none; stroke-dasharray: 5.55,2.4; stroke-dashoffset: 0; stroke: #ff7f0e; stroke-width: 1.5"/>
   </g>
   <g id="line2d_16">
    <path d="M 231.996273 689.048852 
L 345.343545 633.193259 
L 458.690818 638.27104 
L 572.038091 608.650651 
L 685.385364 671.276618 
L 798.732636 672.546063 
L 912.079909 675.93125 
L 1025.427182 650.965493 
L 1138.774455 672.969211 
L 1252.121727 689.472 
" clip-path="url(#pabcaadc7e7)" style="fill: none; stroke-dasharray: 1.5,2.475; stroke-dashoffset: 0; stroke: #2ca02c; stroke-width: 1.5"/>
   </g>
   <g id="line2d_17">
    <path d="M 231.996273 444.89221 
L 345.343545 451.662585 
L 458.690818 444.045913 
L 572.038091 441.930171 
L 685.385364 433.890351 
L 798.732636 430.505163 
L 912.079909 428.81257 
L 1025.427182 431.35146 
L 1138.774455 433.044054 
L 1252.121727 432.197757 
" clip-path="url(#pabcaadc7e7)" style="fill: none; stroke: #d62728; stroke-width: 1.5; stroke-linecap: square"/>
   </g>
   <g id="line2d_18">
    <path d="M 231.996273 454.200942 
L 345.343545 458.432005 
L 458.690818 444.890498 
L 572.038091 439.389905 
L 685.385364 427.965052 
L 798.732636 428.811124 
L 912.079909 434.735034 
L 1025.427182 429.658389 
L 1138.774455 433.889593 
L 1252.121727 431.350463 
" clip-path="url(#pabcaadc7e7)" style="fill: none; stroke-dasharray: 5.55,2.4; stroke-dashoffset: 0; stroke: #9467bd; stroke-width: 1.5"/>
   </g>
   <g id="line2d_19">
    <path d="M 231.996273 474.089451 
L 345.343545 457.586663 
L 458.690818 454.624624 
L 572.038091 446.161655 
L 685.385364 439.814429 
L 798.732636 437.275538 
L 912.079909 444.89221 
L 1025.427182 447.007952 
L 1138.774455 450.816288 
L 1252.121727 442.353319 
" clip-path="url(#pabcaadc7e7)" style="fill: none; stroke-dasharray: 1.5,2.475; stroke-dashoffset: 0; stroke: #8c564b; stroke-width: 1.5"/>
   </g>
   <g id="line2d_20">
    <path d="M 231.996273 364.494009 
L 345.343545 364.070861 
L 458.690818 380.150501 
L 572.038091 387.344024 
L 685.385364 389.882915 
L 798.732636 388.613469 
L 912.079909 388.190321 
L 1025.427182 387.344024 
L 1138.774455 385.65143 
L 1252.121727 390.729211 
" clip-path="url(#pabcaadc7e7)" style="fill: none; stroke: #e377c2; stroke-width: 1.5; stroke-linecap: square"/>
   </g>
   <g id="line2d_21">
    <path d="M 231.996273 371.686788 
L 345.343545 391.151082 
L 458.690818 389.881623 
L 572.038091 391.150731 
L 685.385364 389.035691 
L 798.732636 384.804206 
L 912.079909 388.612304 
L 1025.427182 388.612304 
L 1138.774455 383.957643 
L 1252.121727 387.342915 
" clip-path="url(#pabcaadc7e7)" style="fill: none; stroke-dasharray: 5.55,2.4; stroke-dashoffset: 0; stroke: #7f7f7f; stroke-width: 1.5"/>
   </g>
   <g id="line2d_22">
    <path d="M 231.996273 423.734789 
L 345.343545 396.653289 
L 458.690818 388.613469 
L 572.038091 401.73107 
L 685.385364 399.19218 
L 798.732636 395.383844 
L 912.079909 392.844954 
L 1025.427182 392.421805 
L 1138.774455 396.230141 
L 1252.121727 396.230141 
" clip-path="url(#pabcaadc7e7)" style="fill: none; stroke-dasharray: 1.5,2.475; stroke-dashoffset: 0; stroke: #bcbd22; stroke-width: 1.5"/>
   </g>
   <g id="line2d_23">
    <path d="M 231.996273 306.099526 
L 345.343545 313.293049 
L 458.690818 320.909721 
L 572.038091 313.293049 
L 685.385364 310.754159 
L 798.732636 311.177307 
L 912.079909 313.716198 
L 1025.427182 312.869901 
L 1138.774455 311.177307 
L 1252.121727 312.446753 
" clip-path="url(#pabcaadc7e7)" style="fill: none; stroke: #17becf; stroke-width: 1.5; stroke-linecap: square"/>
   </g>
   <g id="line2d_24">
    <path d="M 231.996273 339.104653 
L 345.343545 322.178085 
L 458.690818 335.295574 
L 572.038091 333.603429 
L 685.385364 333.179551 
L 798.732636 343.758051 
L 912.079909 343.758542 
L 1025.427182 340.373201 
L 1138.774455 340.373481 
L 1252.121727 342.91233 
" clip-path="url(#pabcaadc7e7)" style="fill: none; stroke-dasharray: 5.55,2.4; stroke-dashoffset: 0; stroke: #1f77b4; stroke-width: 1.5"/>
   </g>
   <g id="line2d_25">
    <path d="M 231.996273 354.338447 
L 345.343545 352.645853 
L 458.690818 347.568072 
L 572.038091 339.528252 
L 685.385364 342.913439 
L 798.732636 335.719916 
L 912.079909 341.220846 
L 1025.427182 336.989361 
L 1138.774455 338.681955 
L 1252.121727 340.374549 
" clip-path="url(#pabcaadc7e7)" style="fill: none; stroke-dasharray: 1.5,2.475; stroke-dashoffset: 0; stroke: #ff7f0e; stroke-width: 1.5"/>
   </g>
   <g id="line2d_26">
    <path d="M 231.996273 290.866183 
L 345.343545 280.287472 
L 458.690818 278.17173 
L 572.038091 276.055988 
L 685.385364 279.018027 
L 798.732636 276.479136 
L 912.079909 276.479136 
L 1025.427182 275.209691 
L 1138.774455 276.055988 
L 1252.121727 274.786543 
" clip-path="url(#pabcaadc7e7)" style="fill: none; stroke: #2ca02c; stroke-width: 1.5; stroke-linecap: square"/>
   </g>
   <g id="line2d_27">
    <path d="M 231.996273 322.602243 
L 345.343545 320.908836 
L 458.690818 314.56175 
L 572.038091 309.483492 
L 685.385364 309.060385 
L 798.732636 313.29194 
L 912.079909 311.599304 
L 1025.427182 312.868833 
L 1138.774455 312.445587 
L 1252.121727 312.02248 
" clip-path="url(#pabcaadc7e7)" style="fill: none; stroke-dasharray: 5.55,2.4; stroke-dashoffset: 0; stroke: #d62728; stroke-width: 1.5"/>
   </g>
   <g id="line2d_28">
    <path d="M 231.996273 350.106963 
L 345.343545 328.103244 
L 458.690818 320.909721 
L 572.038091 320.909721 
L 685.385364 317.524534 
L 798.732636 315.83194 
L 912.079909 314.139346 
L 1025.427182 309.061565 
L 1138.774455 310.33101 
L 1252.121727 312.023604 
" clip-path="url(#pabcaadc7e7)" style="fill: none; stroke-dasharray: 1.5,2.475; stroke-dashoffset: 0; stroke: #9467bd; stroke-width: 1.5"/>
   </g>
   <g id="line2d_29">
    <path d="M 231.996273 254.475418 
L 345.343545 262.09209 
L 458.690818 262.09209 
L 572.038091 260.822645 
L 685.385364 261.668942 
L 798.732636 256.59116 
L 912.079909 257.437457 
L 1025.427182 261.245793 
L 1138.774455 257.014309 
L 1252.121727 258.283754 
" clip-path="url(#pabcaadc7e7)" style="fill: none; stroke: #8c564b; stroke-width: 1.5; stroke-linecap: square"/>
   </g>
   <g id="line2d_30">
    <path d="M 231.996273 310.330125 
L 345.343545 307.790926 
L 458.690818 304.405724 
L 572.038091 305.675114 
L 685.385364 302.289702 
L 798.732636 304.405654 
L 912.079909 303.136335 
L 1025.427182 303.559512 
L 1138.774455 305.675184 
L 1252.121727 301.020593 
" clip-path="url(#pabcaadc7e7)" style="fill: none; stroke-dasharray: 5.55,2.4; stroke-dashoffset: 0; stroke: #e377c2; stroke-width: 1.5"/>
   </g>
   <g id="line2d_31">
    <path d="M 231.996273 321.33287 
L 345.343545 312.869901 
L 458.690818 306.099526 
L 572.038091 313.293049 
L 685.385364 313.293049 
L 798.732636 313.716198 
L 912.079909 313.293049 
L 1025.427182 309.907862 
L 1138.774455 312.023604 
L 1252.121727 310.754159 
" clip-path="url(#pabcaadc7e7)" style="fill: none; stroke-dasharray: 1.5,2.475; stroke-dashoffset: 0; stroke: #7f7f7f; stroke-width: 1.5"/>
   </g>
   <g id="line2d_32">
    <path d="M 231.996273 207.929091 
L 345.343545 208.775388 
L 458.690818 209.198537 
L 572.038091 212.583724 
L 685.385364 213.006873 
L 798.732636 214.699466 
L 912.079909 220.623544 
L 1025.427182 220.200396 
L 1138.774455 221.469841 
L 1252.121727 223.162435 
" clip-path="url(#pabcaadc7e7)" style="fill: none; stroke: #bcbd22; stroke-width: 1.5; stroke-linecap: square"/>
   </g>
   <g id="line2d_33">
    <path d="M 231.996273 292.556292 
L 345.343545 295.518808 
L 458.690818 289.595459 
L 572.038091 287.902473 
L 685.385364 287.902613 
L 798.732636 290.018285 
L 912.079909 290.864568 
L 1025.427182 290.441532 
L 1138.774455 288.325579 
L 1252.121727 287.902543 
" clip-path="url(#pabcaadc7e7)" style="fill: none; stroke-dasharray: 5.55,2.4; stroke-dashoffset: 0; stroke: #17becf; stroke-width: 1.5"/>
   </g>
   <g id="line2d_34">
    <path d="M 231.996273 307.79212 
L 345.343545 302.29119 
L 458.690818 303.137487 
L 572.038091 293.405073 
L 685.385364 292.558777 
L 798.732636 290.866183 
L 912.079909 296.790261 
L 1025.427182 299.329151 
L 1138.774455 296.790261 
L 1252.121727 301.444894 
" clip-path="url(#pabcaadc7e7)" style="fill: none; stroke-dasharray: 1.5,2.475; stroke-dashoffset: 0; stroke: #1f77b4; stroke-width: 1.5"/>
   </g>
   <g id="line2d_35">
    <path d="M 231.996273 149.957757 
L 345.343545 136.840156 
L 458.690818 124.992 
L 572.038091 135.570711 
L 685.385364 132.608672 
L 798.732636 129.646633 
L 912.079909 130.069781 
L 1025.427182 132.608672 
L 1138.774455 131.339226 
L 1252.121727 133.454969 
" clip-path="url(#pabcaadc7e7)" style="fill: none; stroke: #ff7f0e; stroke-width: 1.5; stroke-linecap: square"/>
   </g>
   <g id="line2d_36">
    <path d="M 231.996273 261.242915 
L 345.343545 267.591685 
L 458.690818 264.629099 
L 572.038091 260.820651 
L 685.385364 263.782606 
L 798.732636 267.168368 
L 912.079909 264.62952 
L 1025.427182 266.321945 
L 1138.774455 266.744911 
L 1252.121727 268.860303 
" clip-path="url(#pabcaadc7e7)" style="fill: none; stroke-dasharray: 5.55,2.4; stroke-dashoffset: 0; stroke: #2ca02c; stroke-width: 1.5"/>
   </g>
   <g id="line2d_37">
    <path d="M 231.996273 297.213409 
L 345.343545 292.558777 
L 458.690818 263.784684 
L 572.038091 270.555058 
L 685.385364 268.439316 
L 798.732636 260.822645 
L 912.079909 273.940246 
L 1025.427182 271.401355 
L 1138.774455 269.285613 
L 1252.121727 271.401355 
" clip-path="url(#pabcaadc7e7)" style="fill: none; stroke-dasharray: 1.5,2.475; stroke-dashoffset: 0; stroke: #d62728; stroke-width: 1.5"/>
   </g>
   <g id="patch_3">
    <path d="M 180.99 717.696 
L 180.99 96.768 
" style="fill: none; stroke: #000000; stroke-width: 0.8; stroke-linejoin: miter; stroke-linecap: square"/>
   </g>
   <g id="patch_4">
    <path d="M 1303.128 717.696 
L 1303.128 96.768 
" style="fill: none; stroke: #000000; stroke-width: 0.8; stroke-linejoin: miter; stroke-linecap: square"/>
   </g>
   <g id="patch_5">
    <path d="M 180.99 717.696 
L 1303.128 717.696 
" style="fill: none; stroke: #000000; stroke-width: 0.8; stroke-linejoin: miter; stroke-linecap: square"/>
   </g>
   <g id="patch_6">
    <path d="M 180.99 96.768 
L 1303.128 96.768 
" style="fill: none; stroke: #000000; stroke-width: 0.8; stroke-linejoin: miter; stroke-linecap: square"/>
   </g>
   <g id="text_16">
    <!-- Random forest: Accuracy vs. Number of Trees for different Tree Depths -->
    <g transform="translate(529.644938 90.768) scale(0.12 -0.12)">
     <defs>
      <path id="DejaVuSans-52" d="M 2841 2188 
Q 3044 2119 3236 1894 
Q 3428 1669 3622 1275 
L 4263 0 
L 3584 0 
L 2988 1197 
Q 2756 1666 2539 1819 
Q 2322 1972 1947 1972 
L 1259 1972 
L 1259 0 
L 628 0 
L 628 4666 
L 2053 4666 
Q 2853 4666 3247 4331 
Q 3641 3997 3641 3322 
Q 3641 2881 3436 2590 
Q 3231 2300 2841 2188 
z
M 1259 4147 
L 1259 2491 
L 2053 2491 
Q 2509 2491 2742 2702 
Q 2975 2913 2975 3322 
Q 2975 3731 2742 3939 
Q 2509 4147 2053 4147 
L 1259 4147 
z
" transform="scale(0.015625)"/>
      <path id="DejaVuSans-6e" d="M 3513 2113 
L 3513 0 
L 2938 0 
L 2938 2094 
Q 2938 2591 2744 2837 
Q 2550 3084 2163 3084 
Q 1697 3084 1428 2787 
Q 1159 2491 1159 1978 
L 1159 0 
L 581 0 
L 581 3500 
L 1159 3500 
L 1159 2956 
Q 1366 3272 1645 3428 
Q 1925 3584 2291 3584 
Q 2894 3584 3203 3211 
Q 3513 2838 3513 2113 
z
" transform="scale(0.015625)"/>
      <path id="DejaVuSans-64" d="M 2906 2969 
L 2906 4863 
L 3481 4863 
L 3481 0 
L 2906 0 
L 2906 525 
Q 2725 213 2448 61 
Q 2172 -91 1784 -91 
Q 1150 -91 751 415 
Q 353 922 353 1747 
Q 353 2572 751 3078 
Q 1150 3584 1784 3584 
Q 2172 3584 2448 3432 
Q 2725 3281 2906 2969 
z
M 947 1747 
Q 947 1113 1208 752 
Q 1469 391 1925 391 
Q 2381 391 2643 752 
Q 2906 1113 2906 1747 
Q 2906 2381 2643 2742 
Q 2381 3103 1925 3103 
Q 1469 3103 1208 2742 
Q 947 2381 947 1747 
z
" transform="scale(0.015625)"/>
      <path id="DejaVuSans-74" d="M 1172 4494 
L 1172 3500 
L 2356 3500 
L 2356 3053 
L 1172 3053 
L 1172 1153 
Q 1172 725 1289 603 
Q 1406 481 1766 481 
L 2356 481 
L 2356 0 
L 1766 0 
Q 1100 0 847 248 
Q 594 497 594 1153 
L 594 3053 
L 172 3053 
L 172 3500 
L 594 3500 
L 594 4494 
L 1172 4494 
z
" transform="scale(0.015625)"/>
      <path id="DejaVuSans-3a" d="M 750 794 
L 1409 794 
L 1409 0 
L 750 0 
L 750 794 
z
M 750 3309 
L 1409 3309 
L 1409 2516 
L 750 2516 
L 750 3309 
z
" transform="scale(0.015625)"/>
      <path id="DejaVuSans-76" d="M 191 3500 
L 800 3500 
L 1894 563 
L 2988 3500 
L 3597 3500 
L 2284 0 
L 1503 0 
L 191 3500 
z
" transform="scale(0.015625)"/>
      <path id="DejaVuSans-69" d="M 603 3500 
L 1178 3500 
L 1178 0 
L 603 0 
L 603 3500 
z
M 603 4863 
L 1178 4863 
L 1178 4134 
L 603 4134 
L 603 4863 
z
" transform="scale(0.015625)"/>
      <path id="DejaVuSans-44" d="M 1259 4147 
L 1259 519 
L 2022 519 
Q 2988 519 3436 956 
Q 3884 1394 3884 2338 
Q 3884 3275 3436 3711 
Q 2988 4147 2022 4147 
L 1259 4147 
z
M 628 4666 
L 1925 4666 
Q 3281 4666 3915 4102 
Q 4550 3538 4550 2338 
Q 4550 1131 3912 565 
Q 3275 0 1925 0 
L 628 0 
L 628 4666 
z
" transform="scale(0.015625)"/>
      <path id="DejaVuSans-70" d="M 1159 525 
L 1159 -1331 
L 581 -1331 
L 581 3500 
L 1159 3500 
L 1159 2969 
Q 1341 3281 1617 3432 
Q 1894 3584 2278 3584 
Q 2916 3584 3314 3078 
Q 3713 2572 3713 1747 
Q 3713 922 3314 415 
Q 2916 -91 2278 -91 
Q 1894 -91 1617 61 
Q 1341 213 1159 525 
z
M 3116 1747 
Q 3116 2381 2855 2742 
Q 2594 3103 2138 3103 
Q 1681 3103 1420 2742 
Q 1159 2381 1159 1747 
Q 1159 1113 1420 752 
Q 1681 391 2138 391 
Q 2594 391 2855 752 
Q 3116 1113 3116 1747 
z
" transform="scale(0.015625)"/>
      <path id="DejaVuSans-68" d="M 3513 2113 
L 3513 0 
L 2938 0 
L 2938 2094 
Q 2938 2591 2744 2837 
Q 2550 3084 2163 3084 
Q 1697 3084 1428 2787 
Q 1159 2491 1159 1978 
L 1159 0 
L 581 0 
L 581 4863 
L 1159 4863 
L 1159 2956 
Q 1366 3272 1645 3428 
Q 1925 3584 2291 3584 
Q 2894 3584 3203 3211 
Q 3513 2838 3513 2113 
z
" transform="scale(0.015625)"/>
     </defs>
     <use xlink:href="#DejaVuSans-52"/>
     <use xlink:href="#DejaVuSans-61" transform="translate(67.232422 0)"/>
     <use xlink:href="#DejaVuSans-6e" transform="translate(128.511719 0)"/>
     <use xlink:href="#DejaVuSans-64" transform="translate(191.890625 0)"/>
     <use xlink:href="#DejaVuSans-6f" transform="translate(255.367188 0)"/>
     <use xlink:href="#DejaVuSans-6d" transform="translate(316.548828 0)"/>
     <use xlink:href="#DejaVuSans-20" transform="translate(413.960938 0)"/>
     <use xlink:href="#DejaVuSans-66" transform="translate(445.748047 0)"/>
     <use xlink:href="#DejaVuSans-6f" transform="translate(480.953125 0)"/>
     <use xlink:href="#DejaVuSans-72" transform="translate(542.134766 0)"/>
     <use xlink:href="#DejaVuSans-65" transform="translate(580.998047 0)"/>
     <use xlink:href="#DejaVuSans-73" transform="translate(642.521484 0)"/>
     <use xlink:href="#DejaVuSans-74" transform="translate(694.621094 0)"/>
     <use xlink:href="#DejaVuSans-3a" transform="translate(733.830078 0)"/>
     <use xlink:href="#DejaVuSans-20" transform="translate(767.521484 0)"/>
     <use xlink:href="#DejaVuSans-41" transform="translate(799.308594 0)"/>
     <use xlink:href="#DejaVuSans-63" transform="translate(865.966797 0)"/>
     <use xlink:href="#DejaVuSans-63" transform="translate(920.947266 0)"/>
     <use xlink:href="#DejaVuSans-75" transform="translate(975.927734 0)"/>
     <use xlink:href="#DejaVuSans-72" transform="translate(1039.306641 0)"/>
     <use xlink:href="#DejaVuSans-61" transform="translate(1080.419922 0)"/>
     <use xlink:href="#DejaVuSans-63" transform="translate(1141.699219 0)"/>
     <use xlink:href="#DejaVuSans-79" transform="translate(1196.679688 0)"/>
     <use xlink:href="#DejaVuSans-20" transform="translate(1255.859375 0)"/>
     <use xlink:href="#DejaVuSans-76" transform="translate(1287.646484 0)"/>
     <use xlink:href="#DejaVuSans-73" transform="translate(1346.826172 0)"/>
     <use xlink:href="#DejaVuSans-2e" transform="translate(1398.925781 0)"/>
     <use xlink:href="#DejaVuSans-20" transform="translate(1430.712891 0)"/>
     <use xlink:href="#DejaVuSans-4e" transform="translate(1462.5 0)"/>
     <use xlink:href="#DejaVuSans-75" transform="translate(1537.304688 0)"/>
     <use xlink:href="#DejaVuSans-6d" transform="translate(1600.683594 0)"/>
     <use xlink:href="#DejaVuSans-62" transform="translate(1698.095703 0)"/>
     <use xlink:href="#DejaVuSans-65" transform="translate(1761.572266 0)"/>
     <use xlink:href="#DejaVuSans-72" transform="translate(1823.095703 0)"/>
     <use xlink:href="#DejaVuSans-20" transform="translate(1864.208984 0)"/>
     <use xlink:href="#DejaVuSans-6f" transform="translate(1895.996094 0)"/>
     <use xlink:href="#DejaVuSans-66" transform="translate(1957.177734 0)"/>
     <use xlink:href="#DejaVuSans-20" transform="translate(1992.382812 0)"/>
     <use xlink:href="#DejaVuSans-54" transform="translate(2024.169922 0)"/>
     <use xlink:href="#DejaVuSans-72" transform="translate(2070.503906 0)"/>
     <use xlink:href="#DejaVuSans-65" transform="translate(2109.367188 0)"/>
     <use xlink:href="#DejaVuSans-65" transform="translate(2170.890625 0)"/>
     <use xlink:href="#DejaVuSans-73" transform="translate(2232.414062 0)"/>
     <use xlink:href="#DejaVuSans-20" transform="translate(2284.513672 0)"/>
     <use xlink:href="#DejaVuSans-66" transform="translate(2316.300781 0)"/>
     <use xlink:href="#DejaVuSans-6f" transform="translate(2351.505859 0)"/>
     <use xlink:href="#DejaVuSans-72" transform="translate(2412.6875 0)"/>
     <use xlink:href="#DejaVuSans-20" transform="translate(2453.800781 0)"/>
     <use xlink:href="#DejaVuSans-64" transform="translate(2485.587891 0)"/>
     <use xlink:href="#DejaVuSans-69" transform="translate(2549.064453 0)"/>
     <use xlink:href="#DejaVuSans-66" transform="translate(2576.847656 0)"/>
     <use xlink:href="#DejaVuSans-66" transform="translate(2612.052734 0)"/>
     <use xlink:href="#DejaVuSans-65" transform="translate(2647.257812 0)"/>
     <use xlink:href="#DejaVuSans-72" transform="translate(2708.78125 0)"/>
     <use xlink:href="#DejaVuSans-65" transform="translate(2747.644531 0)"/>
     <use xlink:href="#DejaVuSans-6e" transform="translate(2809.167969 0)"/>
     <use xlink:href="#DejaVuSans-74" transform="translate(2872.546875 0)"/>
     <use xlink:href="#DejaVuSans-20" transform="translate(2911.755859 0)"/>
     <use xlink:href="#DejaVuSans-54" transform="translate(2943.542969 0)"/>
     <use xlink:href="#DejaVuSans-72" transform="translate(2989.876953 0)"/>
     <use xlink:href="#DejaVuSans-65" transform="translate(3028.740234 0)"/>
     <use xlink:href="#DejaVuSans-65" transform="translate(3090.263672 0)"/>
     <use xlink:href="#DejaVuSans-20" transform="translate(3151.787109 0)"/>
     <use xlink:href="#DejaVuSans-44" transform="translate(3183.574219 0)"/>
     <use xlink:href="#DejaVuSans-65" transform="translate(3260.576172 0)"/>
     <use xlink:href="#DejaVuSans-70" transform="translate(3322.099609 0)"/>
     <use xlink:href="#DejaVuSans-74" transform="translate(3385.576172 0)"/>
     <use xlink:href="#DejaVuSans-68" transform="translate(3424.785156 0)"/>
     <use xlink:href="#DejaVuSans-73" transform="translate(3488.164062 0)"/>
    </g>
   </g>
   <g id="legend_1">
    <g id="patch_7">
     <path d="M 187.99 712.696 
L 300.304062 712.696 
Q 302.304062 712.696 302.304062 710.696 
L 302.304062 359.421 
Q 302.304062 357.421 300.304062 357.421 
L 187.99 357.421 
Q 185.99 357.421 185.99 359.421 
L 185.99 710.696 
Q 185.99 712.696 187.99 712.696 
z
" style="fill: #ffffff; opacity: 0.8; stroke: #cccccc; stroke-linejoin: miter"/>
    </g>
    <g id="line2d_38">
     <path d="M 189.99 365.519437 
L 199.99 365.519437 
L 209.99 365.519437 
" style="fill: none; stroke: #1f77b4; stroke-width: 1.5; stroke-linecap: square"/>
    </g>
    <g id="text_17">
     <!-- Depth 3 - Train -->
     <g transform="translate(217.99 369.019437) scale(0.1 -0.1)">
      <defs>
       <path id="DejaVuSans-2d" d="M 313 2009 
L 1997 2009 
L 1997 1497 
L 313 1497 
L 313 2009 
z
" transform="scale(0.015625)"/>
      </defs>
      <use xlink:href="#DejaVuSans-44"/>
      <use xlink:href="#DejaVuSans-65" transform="translate(77.001953 0)"/>
      <use xlink:href="#DejaVuSans-70" transform="translate(138.525391 0)"/>
      <use xlink:href="#DejaVuSans-74" transform="translate(202.001953 0)"/>
      <use xlink:href="#DejaVuSans-68" transform="translate(241.210938 0)"/>
      <use xlink:href="#DejaVuSans-20" transform="translate(304.589844 0)"/>
      <use xlink:href="#DejaVuSans-33" transform="translate(336.376953 0)"/>
      <use xlink:href="#DejaVuSans-20" transform="translate(400 0)"/>
      <use xlink:href="#DejaVuSans-2d" transform="translate(431.787109 0)"/>
      <use xlink:href="#DejaVuSans-20" transform="translate(467.871094 0)"/>
      <use xlink:href="#DejaVuSans-54" transform="translate(499.658203 0)"/>
      <use xlink:href="#DejaVuSans-72" transform="translate(545.992188 0)"/>
      <use xlink:href="#DejaVuSans-61" transform="translate(587.105469 0)"/>
      <use xlink:href="#DejaVuSans-69" transform="translate(648.384766 0)"/>
      <use xlink:href="#DejaVuSans-6e" transform="translate(676.167969 0)"/>
     </g>
    </g>
    <g id="line2d_39">
     <path d="M 189.99 380.197562 
L 199.99 380.197562 
L 209.99 380.197562 
" style="fill: none; stroke-dasharray: 5.55,2.4; stroke-dashoffset: 0; stroke: #ff7f0e; stroke-width: 1.5"/>
    </g>
    <g id="text_18">
     <!-- Depth 3 - CV -->
     <g transform="translate(217.99 383.697562) scale(0.1 -0.1)">
      <defs>
       <path id="DejaVuSans-43" d="M 4122 4306 
L 4122 3641 
Q 3803 3938 3442 4084 
Q 3081 4231 2675 4231 
Q 1875 4231 1450 3742 
Q 1025 3253 1025 2328 
Q 1025 1406 1450 917 
Q 1875 428 2675 428 
Q 3081 428 3442 575 
Q 3803 722 4122 1019 
L 4122 359 
Q 3791 134 3420 21 
Q 3050 -91 2638 -91 
Q 1578 -91 968 557 
Q 359 1206 359 2328 
Q 359 3453 968 4101 
Q 1578 4750 2638 4750 
Q 3056 4750 3426 4639 
Q 3797 4528 4122 4306 
z
" transform="scale(0.015625)"/>
       <path id="DejaVuSans-56" d="M 1831 0 
L 50 4666 
L 709 4666 
L 2188 738 
L 3669 4666 
L 4325 4666 
L 2547 0 
L 1831 0 
z
" transform="scale(0.015625)"/>
      </defs>
      <use xlink:href="#DejaVuSans-44"/>
      <use xlink:href="#DejaVuSans-65" transform="translate(77.001953 0)"/>
      <use xlink:href="#DejaVuSans-70" transform="translate(138.525391 0)"/>
      <use xlink:href="#DejaVuSans-74" transform="translate(202.001953 0)"/>
      <use xlink:href="#DejaVuSans-68" transform="translate(241.210938 0)"/>
      <use xlink:href="#DejaVuSans-20" transform="translate(304.589844 0)"/>
      <use xlink:href="#DejaVuSans-33" transform="translate(336.376953 0)"/>
      <use xlink:href="#DejaVuSans-20" transform="translate(400 0)"/>
      <use xlink:href="#DejaVuSans-2d" transform="translate(431.787109 0)"/>
      <use xlink:href="#DejaVuSans-20" transform="translate(467.871094 0)"/>
      <use xlink:href="#DejaVuSans-43" transform="translate(499.658203 0)"/>
      <use xlink:href="#DejaVuSans-56" transform="translate(569.482422 0)"/>
     </g>
    </g>
    <g id="line2d_40">
     <path d="M 189.99 394.875687 
L 199.99 394.875687 
L 209.99 394.875687 
" style="fill: none; stroke-dasharray: 1.5,2.475; stroke-dashoffset: 0; stroke: #2ca02c; stroke-width: 1.5"/>
    </g>
    <g id="text_19">
     <!-- Depth 3 - OOB -->
     <g transform="translate(217.99 398.375687) scale(0.1 -0.1)">
      <defs>
       <path id="DejaVuSans-4f" d="M 2522 4238 
Q 1834 4238 1429 3725 
Q 1025 3213 1025 2328 
Q 1025 1447 1429 934 
Q 1834 422 2522 422 
Q 3209 422 3611 934 
Q 4013 1447 4013 2328 
Q 4013 3213 3611 3725 
Q 3209 4238 2522 4238 
z
M 2522 4750 
Q 3503 4750 4090 4092 
Q 4678 3434 4678 2328 
Q 4678 1225 4090 567 
Q 3503 -91 2522 -91 
Q 1538 -91 948 565 
Q 359 1222 359 2328 
Q 359 3434 948 4092 
Q 1538 4750 2522 4750 
z
" transform="scale(0.015625)"/>
       <path id="DejaVuSans-42" d="M 1259 2228 
L 1259 519 
L 2272 519 
Q 2781 519 3026 730 
Q 3272 941 3272 1375 
Q 3272 1813 3026 2020 
Q 2781 2228 2272 2228 
L 1259 2228 
z
M 1259 4147 
L 1259 2741 
L 2194 2741 
Q 2656 2741 2882 2914 
Q 3109 3088 3109 3444 
Q 3109 3797 2882 3972 
Q 2656 4147 2194 4147 
L 1259 4147 
z
M 628 4666 
L 2241 4666 
Q 2963 4666 3353 4366 
Q 3744 4066 3744 3513 
Q 3744 3084 3544 2831 
Q 3344 2578 2956 2516 
Q 3422 2416 3680 2098 
Q 3938 1781 3938 1306 
Q 3938 681 3513 340 
Q 3088 0 2303 0 
L 628 0 
L 628 4666 
z
" transform="scale(0.015625)"/>
      </defs>
      <use xlink:href="#DejaVuSans-44"/>
      <use xlink:href="#DejaVuSans-65" transform="translate(77.001953 0)"/>
      <use xlink:href="#DejaVuSans-70" transform="translate(138.525391 0)"/>
      <use xlink:href="#DejaVuSans-74" transform="translate(202.001953 0)"/>
      <use xlink:href="#DejaVuSans-68" transform="translate(241.210938 0)"/>
      <use xlink:href="#DejaVuSans-20" transform="translate(304.589844 0)"/>
      <use xlink:href="#DejaVuSans-33" transform="translate(336.376953 0)"/>
      <use xlink:href="#DejaVuSans-20" transform="translate(400 0)"/>
      <use xlink:href="#DejaVuSans-2d" transform="translate(431.787109 0)"/>
      <use xlink:href="#DejaVuSans-20" transform="translate(467.871094 0)"/>
      <use xlink:href="#DejaVuSans-4f" transform="translate(499.658203 0)"/>
      <use xlink:href="#DejaVuSans-4f" transform="translate(578.369141 0)"/>
      <use xlink:href="#DejaVuSans-42" transform="translate(657.080078 0)"/>
     </g>
    </g>
    <g id="line2d_41">
     <path d="M 189.99 409.553812 
L 199.99 409.553812 
L 209.99 409.553812 
" style="fill: none; stroke: #d62728; stroke-width: 1.5; stroke-linecap: square"/>
    </g>
    <g id="text_20">
     <!-- Depth 4 - Train -->
     <g transform="translate(217.99 413.053812) scale(0.1 -0.1)">
      <use xlink:href="#DejaVuSans-44"/>
      <use xlink:href="#DejaVuSans-65" transform="translate(77.001953 0)"/>
      <use xlink:href="#DejaVuSans-70" transform="translate(138.525391 0)"/>
      <use xlink:href="#DejaVuSans-74" transform="translate(202.001953 0)"/>
      <use xlink:href="#DejaVuSans-68" transform="translate(241.210938 0)"/>
      <use xlink:href="#DejaVuSans-20" transform="translate(304.589844 0)"/>
      <use xlink:href="#DejaVuSans-34" transform="translate(336.376953 0)"/>
      <use xlink:href="#DejaVuSans-20" transform="translate(400 0)"/>
      <use xlink:href="#DejaVuSans-2d" transform="translate(431.787109 0)"/>
      <use xlink:href="#DejaVuSans-20" transform="translate(467.871094 0)"/>
      <use xlink:href="#DejaVuSans-54" transform="translate(499.658203 0)"/>
      <use xlink:href="#DejaVuSans-72" transform="translate(545.992188 0)"/>
      <use xlink:href="#DejaVuSans-61" transform="translate(587.105469 0)"/>
      <use xlink:href="#DejaVuSans-69" transform="translate(648.384766 0)"/>
      <use xlink:href="#DejaVuSans-6e" transform="translate(676.167969 0)"/>
     </g>
    </g>
    <g id="line2d_42">
     <path d="M 189.99 424.231937 
L 199.99 424.231937 
L 209.99 424.231937 
" style="fill: none; stroke-dasharray: 5.55,2.4; stroke-dashoffset: 0; stroke: #9467bd; stroke-width: 1.5"/>
    </g>
    <g id="text_21">
     <!-- Depth 4 - CV -->
     <g transform="translate(217.99 427.731937) scale(0.1 -0.1)">
      <use xlink:href="#DejaVuSans-44"/>
      <use xlink:href="#DejaVuSans-65" transform="translate(77.001953 0)"/>
      <use xlink:href="#DejaVuSans-70" transform="translate(138.525391 0)"/>
      <use xlink:href="#DejaVuSans-74" transform="translate(202.001953 0)"/>
      <use xlink:href="#DejaVuSans-68" transform="translate(241.210938 0)"/>
      <use xlink:href="#DejaVuSans-20" transform="translate(304.589844 0)"/>
      <use xlink:href="#DejaVuSans-34" transform="translate(336.376953 0)"/>
      <use xlink:href="#DejaVuSans-20" transform="translate(400 0)"/>
      <use xlink:href="#DejaVuSans-2d" transform="translate(431.787109 0)"/>
      <use xlink:href="#DejaVuSans-20" transform="translate(467.871094 0)"/>
      <use xlink:href="#DejaVuSans-43" transform="translate(499.658203 0)"/>
      <use xlink:href="#DejaVuSans-56" transform="translate(569.482422 0)"/>
     </g>
    </g>
    <g id="line2d_43">
     <path d="M 189.99 438.910062 
L 199.99 438.910062 
L 209.99 438.910062 
" style="fill: none; stroke-dasharray: 1.5,2.475; stroke-dashoffset: 0; stroke: #8c564b; stroke-width: 1.5"/>
    </g>
    <g id="text_22">
     <!-- Depth 4 - OOB -->
     <g transform="translate(217.99 442.410062) scale(0.1 -0.1)">
      <use xlink:href="#DejaVuSans-44"/>
      <use xlink:href="#DejaVuSans-65" transform="translate(77.001953 0)"/>
      <use xlink:href="#DejaVuSans-70" transform="translate(138.525391 0)"/>
      <use xlink:href="#DejaVuSans-74" transform="translate(202.001953 0)"/>
      <use xlink:href="#DejaVuSans-68" transform="translate(241.210938 0)"/>
      <use xlink:href="#DejaVuSans-20" transform="translate(304.589844 0)"/>
      <use xlink:href="#DejaVuSans-34" transform="translate(336.376953 0)"/>
      <use xlink:href="#DejaVuSans-20" transform="translate(400 0)"/>
      <use xlink:href="#DejaVuSans-2d" transform="translate(431.787109 0)"/>
      <use xlink:href="#DejaVuSans-20" transform="translate(467.871094 0)"/>
      <use xlink:href="#DejaVuSans-4f" transform="translate(499.658203 0)"/>
      <use xlink:href="#DejaVuSans-4f" transform="translate(578.369141 0)"/>
      <use xlink:href="#DejaVuSans-42" transform="translate(657.080078 0)"/>
     </g>
    </g>
    <g id="line2d_44">
     <path d="M 189.99 453.588187 
L 199.99 453.588187 
L 209.99 453.588187 
" style="fill: none; stroke: #e377c2; stroke-width: 1.5; stroke-linecap: square"/>
    </g>
    <g id="text_23">
     <!-- Depth 5 - Train -->
     <g transform="translate(217.99 457.088187) scale(0.1 -0.1)">
      <use xlink:href="#DejaVuSans-44"/>
      <use xlink:href="#DejaVuSans-65" transform="translate(77.001953 0)"/>
      <use xlink:href="#DejaVuSans-70" transform="translate(138.525391 0)"/>
      <use xlink:href="#DejaVuSans-74" transform="translate(202.001953 0)"/>
      <use xlink:href="#DejaVuSans-68" transform="translate(241.210938 0)"/>
      <use xlink:href="#DejaVuSans-20" transform="translate(304.589844 0)"/>
      <use xlink:href="#DejaVuSans-35" transform="translate(336.376953 0)"/>
      <use xlink:href="#DejaVuSans-20" transform="translate(400 0)"/>
      <use xlink:href="#DejaVuSans-2d" transform="translate(431.787109 0)"/>
      <use xlink:href="#DejaVuSans-20" transform="translate(467.871094 0)"/>
      <use xlink:href="#DejaVuSans-54" transform="translate(499.658203 0)"/>
      <use xlink:href="#DejaVuSans-72" transform="translate(545.992188 0)"/>
      <use xlink:href="#DejaVuSans-61" transform="translate(587.105469 0)"/>
      <use xlink:href="#DejaVuSans-69" transform="translate(648.384766 0)"/>
      <use xlink:href="#DejaVuSans-6e" transform="translate(676.167969 0)"/>
     </g>
    </g>
    <g id="line2d_45">
     <path d="M 189.99 468.266312 
L 199.99 468.266312 
L 209.99 468.266312 
" style="fill: none; stroke-dasharray: 5.55,2.4; stroke-dashoffset: 0; stroke: #7f7f7f; stroke-width: 1.5"/>
    </g>
    <g id="text_24">
     <!-- Depth 5 - CV -->
     <g transform="translate(217.99 471.766312) scale(0.1 -0.1)">
      <use xlink:href="#DejaVuSans-44"/>
      <use xlink:href="#DejaVuSans-65" transform="translate(77.001953 0)"/>
      <use xlink:href="#DejaVuSans-70" transform="translate(138.525391 0)"/>
      <use xlink:href="#DejaVuSans-74" transform="translate(202.001953 0)"/>
      <use xlink:href="#DejaVuSans-68" transform="translate(241.210938 0)"/>
      <use xlink:href="#DejaVuSans-20" transform="translate(304.589844 0)"/>
      <use xlink:href="#DejaVuSans-35" transform="translate(336.376953 0)"/>
      <use xlink:href="#DejaVuSans-20" transform="translate(400 0)"/>
      <use xlink:href="#DejaVuSans-2d" transform="translate(431.787109 0)"/>
      <use xlink:href="#DejaVuSans-20" transform="translate(467.871094 0)"/>
      <use xlink:href="#DejaVuSans-43" transform="translate(499.658203 0)"/>
      <use xlink:href="#DejaVuSans-56" transform="translate(569.482422 0)"/>
     </g>
    </g>
    <g id="line2d_46">
     <path d="M 189.99 482.944437 
L 199.99 482.944437 
L 209.99 482.944437 
" style="fill: none; stroke-dasharray: 1.5,2.475; stroke-dashoffset: 0; stroke: #bcbd22; stroke-width: 1.5"/>
    </g>
    <g id="text_25">
     <!-- Depth 5 - OOB -->
     <g transform="translate(217.99 486.444437) scale(0.1 -0.1)">
      <use xlink:href="#DejaVuSans-44"/>
      <use xlink:href="#DejaVuSans-65" transform="translate(77.001953 0)"/>
      <use xlink:href="#DejaVuSans-70" transform="translate(138.525391 0)"/>
      <use xlink:href="#DejaVuSans-74" transform="translate(202.001953 0)"/>
      <use xlink:href="#DejaVuSans-68" transform="translate(241.210938 0)"/>
      <use xlink:href="#DejaVuSans-20" transform="translate(304.589844 0)"/>
      <use xlink:href="#DejaVuSans-35" transform="translate(336.376953 0)"/>
      <use xlink:href="#DejaVuSans-20" transform="translate(400 0)"/>
      <use xlink:href="#DejaVuSans-2d" transform="translate(431.787109 0)"/>
      <use xlink:href="#DejaVuSans-20" transform="translate(467.871094 0)"/>
      <use xlink:href="#DejaVuSans-4f" transform="translate(499.658203 0)"/>
      <use xlink:href="#DejaVuSans-4f" transform="translate(578.369141 0)"/>
      <use xlink:href="#DejaVuSans-42" transform="translate(657.080078 0)"/>
     </g>
    </g>
    <g id="line2d_47">
     <path d="M 189.99 497.622562 
L 199.99 497.622562 
L 209.99 497.622562 
" style="fill: none; stroke: #17becf; stroke-width: 1.5; stroke-linecap: square"/>
    </g>
    <g id="text_26">
     <!-- Depth 6 - Train -->
     <g transform="translate(217.99 501.122562) scale(0.1 -0.1)">
      <use xlink:href="#DejaVuSans-44"/>
      <use xlink:href="#DejaVuSans-65" transform="translate(77.001953 0)"/>
      <use xlink:href="#DejaVuSans-70" transform="translate(138.525391 0)"/>
      <use xlink:href="#DejaVuSans-74" transform="translate(202.001953 0)"/>
      <use xlink:href="#DejaVuSans-68" transform="translate(241.210938 0)"/>
      <use xlink:href="#DejaVuSans-20" transform="translate(304.589844 0)"/>
      <use xlink:href="#DejaVuSans-36" transform="translate(336.376953 0)"/>
      <use xlink:href="#DejaVuSans-20" transform="translate(400 0)"/>
      <use xlink:href="#DejaVuSans-2d" transform="translate(431.787109 0)"/>
      <use xlink:href="#DejaVuSans-20" transform="translate(467.871094 0)"/>
      <use xlink:href="#DejaVuSans-54" transform="translate(499.658203 0)"/>
      <use xlink:href="#DejaVuSans-72" transform="translate(545.992188 0)"/>
      <use xlink:href="#DejaVuSans-61" transform="translate(587.105469 0)"/>
      <use xlink:href="#DejaVuSans-69" transform="translate(648.384766 0)"/>
      <use xlink:href="#DejaVuSans-6e" transform="translate(676.167969 0)"/>
     </g>
    </g>
    <g id="line2d_48">
     <path d="M 189.99 512.300687 
L 199.99 512.300687 
L 209.99 512.300687 
" style="fill: none; stroke-dasharray: 5.55,2.4; stroke-dashoffset: 0; stroke: #1f77b4; stroke-width: 1.5"/>
    </g>
    <g id="text_27">
     <!-- Depth 6 - CV -->
     <g transform="translate(217.99 515.800687) scale(0.1 -0.1)">
      <use xlink:href="#DejaVuSans-44"/>
      <use xlink:href="#DejaVuSans-65" transform="translate(77.001953 0)"/>
      <use xlink:href="#DejaVuSans-70" transform="translate(138.525391 0)"/>
      <use xlink:href="#DejaVuSans-74" transform="translate(202.001953 0)"/>
      <use xlink:href="#DejaVuSans-68" transform="translate(241.210938 0)"/>
      <use xlink:href="#DejaVuSans-20" transform="translate(304.589844 0)"/>
      <use xlink:href="#DejaVuSans-36" transform="translate(336.376953 0)"/>
      <use xlink:href="#DejaVuSans-20" transform="translate(400 0)"/>
      <use xlink:href="#DejaVuSans-2d" transform="translate(431.787109 0)"/>
      <use xlink:href="#DejaVuSans-20" transform="translate(467.871094 0)"/>
      <use xlink:href="#DejaVuSans-43" transform="translate(499.658203 0)"/>
      <use xlink:href="#DejaVuSans-56" transform="translate(569.482422 0)"/>
     </g>
    </g>
    <g id="line2d_49">
     <path d="M 189.99 526.978812 
L 199.99 526.978812 
L 209.99 526.978812 
" style="fill: none; stroke-dasharray: 1.5,2.475; stroke-dashoffset: 0; stroke: #ff7f0e; stroke-width: 1.5"/>
    </g>
    <g id="text_28">
     <!-- Depth 6 - OOB -->
     <g transform="translate(217.99 530.478812) scale(0.1 -0.1)">
      <use xlink:href="#DejaVuSans-44"/>
      <use xlink:href="#DejaVuSans-65" transform="translate(77.001953 0)"/>
      <use xlink:href="#DejaVuSans-70" transform="translate(138.525391 0)"/>
      <use xlink:href="#DejaVuSans-74" transform="translate(202.001953 0)"/>
      <use xlink:href="#DejaVuSans-68" transform="translate(241.210938 0)"/>
      <use xlink:href="#DejaVuSans-20" transform="translate(304.589844 0)"/>
      <use xlink:href="#DejaVuSans-36" transform="translate(336.376953 0)"/>
      <use xlink:href="#DejaVuSans-20" transform="translate(400 0)"/>
      <use xlink:href="#DejaVuSans-2d" transform="translate(431.787109 0)"/>
      <use xlink:href="#DejaVuSans-20" transform="translate(467.871094 0)"/>
      <use xlink:href="#DejaVuSans-4f" transform="translate(499.658203 0)"/>
      <use xlink:href="#DejaVuSans-4f" transform="translate(578.369141 0)"/>
      <use xlink:href="#DejaVuSans-42" transform="translate(657.080078 0)"/>
     </g>
    </g>
    <g id="line2d_50">
     <path d="M 189.99 541.656937 
L 199.99 541.656937 
L 209.99 541.656937 
" style="fill: none; stroke: #2ca02c; stroke-width: 1.5; stroke-linecap: square"/>
    </g>
    <g id="text_29">
     <!-- Depth 7 - Train -->
     <g transform="translate(217.99 545.156937) scale(0.1 -0.1)">
      <use xlink:href="#DejaVuSans-44"/>
      <use xlink:href="#DejaVuSans-65" transform="translate(77.001953 0)"/>
      <use xlink:href="#DejaVuSans-70" transform="translate(138.525391 0)"/>
      <use xlink:href="#DejaVuSans-74" transform="translate(202.001953 0)"/>
      <use xlink:href="#DejaVuSans-68" transform="translate(241.210938 0)"/>
      <use xlink:href="#DejaVuSans-20" transform="translate(304.589844 0)"/>
      <use xlink:href="#DejaVuSans-37" transform="translate(336.376953 0)"/>
      <use xlink:href="#DejaVuSans-20" transform="translate(400 0)"/>
      <use xlink:href="#DejaVuSans-2d" transform="translate(431.787109 0)"/>
      <use xlink:href="#DejaVuSans-20" transform="translate(467.871094 0)"/>
      <use xlink:href="#DejaVuSans-54" transform="translate(499.658203 0)"/>
      <use xlink:href="#DejaVuSans-72" transform="translate(545.992188 0)"/>
      <use xlink:href="#DejaVuSans-61" transform="translate(587.105469 0)"/>
      <use xlink:href="#DejaVuSans-69" transform="translate(648.384766 0)"/>
      <use xlink:href="#DejaVuSans-6e" transform="translate(676.167969 0)"/>
     </g>
    </g>
    <g id="line2d_51">
     <path d="M 189.99 556.335062 
L 199.99 556.335062 
L 209.99 556.335062 
" style="fill: none; stroke-dasharray: 5.55,2.4; stroke-dashoffset: 0; stroke: #d62728; stroke-width: 1.5"/>
    </g>
    <g id="text_30">
     <!-- Depth 7 - CV -->
     <g transform="translate(217.99 559.835062) scale(0.1 -0.1)">
      <use xlink:href="#DejaVuSans-44"/>
      <use xlink:href="#DejaVuSans-65" transform="translate(77.001953 0)"/>
      <use xlink:href="#DejaVuSans-70" transform="translate(138.525391 0)"/>
      <use xlink:href="#DejaVuSans-74" transform="translate(202.001953 0)"/>
      <use xlink:href="#DejaVuSans-68" transform="translate(241.210938 0)"/>
      <use xlink:href="#DejaVuSans-20" transform="translate(304.589844 0)"/>
      <use xlink:href="#DejaVuSans-37" transform="translate(336.376953 0)"/>
      <use xlink:href="#DejaVuSans-20" transform="translate(400 0)"/>
      <use xlink:href="#DejaVuSans-2d" transform="translate(431.787109 0)"/>
      <use xlink:href="#DejaVuSans-20" transform="translate(467.871094 0)"/>
      <use xlink:href="#DejaVuSans-43" transform="translate(499.658203 0)"/>
      <use xlink:href="#DejaVuSans-56" transform="translate(569.482422 0)"/>
     </g>
    </g>
    <g id="line2d_52">
     <path d="M 189.99 571.013187 
L 199.99 571.013187 
L 209.99 571.013187 
" style="fill: none; stroke-dasharray: 1.5,2.475; stroke-dashoffset: 0; stroke: #9467bd; stroke-width: 1.5"/>
    </g>
    <g id="text_31">
     <!-- Depth 7 - OOB -->
     <g transform="translate(217.99 574.513187) scale(0.1 -0.1)">
      <use xlink:href="#DejaVuSans-44"/>
      <use xlink:href="#DejaVuSans-65" transform="translate(77.001953 0)"/>
      <use xlink:href="#DejaVuSans-70" transform="translate(138.525391 0)"/>
      <use xlink:href="#DejaVuSans-74" transform="translate(202.001953 0)"/>
      <use xlink:href="#DejaVuSans-68" transform="translate(241.210938 0)"/>
      <use xlink:href="#DejaVuSans-20" transform="translate(304.589844 0)"/>
      <use xlink:href="#DejaVuSans-37" transform="translate(336.376953 0)"/>
      <use xlink:href="#DejaVuSans-20" transform="translate(400 0)"/>
      <use xlink:href="#DejaVuSans-2d" transform="translate(431.787109 0)"/>
      <use xlink:href="#DejaVuSans-20" transform="translate(467.871094 0)"/>
      <use xlink:href="#DejaVuSans-4f" transform="translate(499.658203 0)"/>
      <use xlink:href="#DejaVuSans-4f" transform="translate(578.369141 0)"/>
      <use xlink:href="#DejaVuSans-42" transform="translate(657.080078 0)"/>
     </g>
    </g>
    <g id="line2d_53">
     <path d="M 189.99 585.691312 
L 199.99 585.691312 
L 209.99 585.691312 
" style="fill: none; stroke: #8c564b; stroke-width: 1.5; stroke-linecap: square"/>
    </g>
    <g id="text_32">
     <!-- Depth 8 - Train -->
     <g transform="translate(217.99 589.191312) scale(0.1 -0.1)">
      <use xlink:href="#DejaVuSans-44"/>
      <use xlink:href="#DejaVuSans-65" transform="translate(77.001953 0)"/>
      <use xlink:href="#DejaVuSans-70" transform="translate(138.525391 0)"/>
      <use xlink:href="#DejaVuSans-74" transform="translate(202.001953 0)"/>
      <use xlink:href="#DejaVuSans-68" transform="translate(241.210938 0)"/>
      <use xlink:href="#DejaVuSans-20" transform="translate(304.589844 0)"/>
      <use xlink:href="#DejaVuSans-38" transform="translate(336.376953 0)"/>
      <use xlink:href="#DejaVuSans-20" transform="translate(400 0)"/>
      <use xlink:href="#DejaVuSans-2d" transform="translate(431.787109 0)"/>
      <use xlink:href="#DejaVuSans-20" transform="translate(467.871094 0)"/>
      <use xlink:href="#DejaVuSans-54" transform="translate(499.658203 0)"/>
      <use xlink:href="#DejaVuSans-72" transform="translate(545.992188 0)"/>
      <use xlink:href="#DejaVuSans-61" transform="translate(587.105469 0)"/>
      <use xlink:href="#DejaVuSans-69" transform="translate(648.384766 0)"/>
      <use xlink:href="#DejaVuSans-6e" transform="translate(676.167969 0)"/>
     </g>
    </g>
    <g id="line2d_54">
     <path d="M 189.99 600.369437 
L 199.99 600.369437 
L 209.99 600.369437 
" style="fill: none; stroke-dasharray: 5.55,2.4; stroke-dashoffset: 0; stroke: #e377c2; stroke-width: 1.5"/>
    </g>
    <g id="text_33">
     <!-- Depth 8 - CV -->
     <g transform="translate(217.99 603.869437) scale(0.1 -0.1)">
      <use xlink:href="#DejaVuSans-44"/>
      <use xlink:href="#DejaVuSans-65" transform="translate(77.001953 0)"/>
      <use xlink:href="#DejaVuSans-70" transform="translate(138.525391 0)"/>
      <use xlink:href="#DejaVuSans-74" transform="translate(202.001953 0)"/>
      <use xlink:href="#DejaVuSans-68" transform="translate(241.210938 0)"/>
      <use xlink:href="#DejaVuSans-20" transform="translate(304.589844 0)"/>
      <use xlink:href="#DejaVuSans-38" transform="translate(336.376953 0)"/>
      <use xlink:href="#DejaVuSans-20" transform="translate(400 0)"/>
      <use xlink:href="#DejaVuSans-2d" transform="translate(431.787109 0)"/>
      <use xlink:href="#DejaVuSans-20" transform="translate(467.871094 0)"/>
      <use xlink:href="#DejaVuSans-43" transform="translate(499.658203 0)"/>
      <use xlink:href="#DejaVuSans-56" transform="translate(569.482422 0)"/>
     </g>
    </g>
    <g id="line2d_55">
     <path d="M 189.99 615.047562 
L 199.99 615.047562 
L 209.99 615.047562 
" style="fill: none; stroke-dasharray: 1.5,2.475; stroke-dashoffset: 0; stroke: #7f7f7f; stroke-width: 1.5"/>
    </g>
    <g id="text_34">
     <!-- Depth 8 - OOB -->
     <g transform="translate(217.99 618.547562) scale(0.1 -0.1)">
      <use xlink:href="#DejaVuSans-44"/>
      <use xlink:href="#DejaVuSans-65" transform="translate(77.001953 0)"/>
      <use xlink:href="#DejaVuSans-70" transform="translate(138.525391 0)"/>
      <use xlink:href="#DejaVuSans-74" transform="translate(202.001953 0)"/>
      <use xlink:href="#DejaVuSans-68" transform="translate(241.210938 0)"/>
      <use xlink:href="#DejaVuSans-20" transform="translate(304.589844 0)"/>
      <use xlink:href="#DejaVuSans-38" transform="translate(336.376953 0)"/>
      <use xlink:href="#DejaVuSans-20" transform="translate(400 0)"/>
      <use xlink:href="#DejaVuSans-2d" transform="translate(431.787109 0)"/>
      <use xlink:href="#DejaVuSans-20" transform="translate(467.871094 0)"/>
      <use xlink:href="#DejaVuSans-4f" transform="translate(499.658203 0)"/>
      <use xlink:href="#DejaVuSans-4f" transform="translate(578.369141 0)"/>
      <use xlink:href="#DejaVuSans-42" transform="translate(657.080078 0)"/>
     </g>
    </g>
    <g id="line2d_56">
     <path d="M 189.99 629.725687 
L 199.99 629.725687 
L 209.99 629.725687 
" style="fill: none; stroke: #bcbd22; stroke-width: 1.5; stroke-linecap: square"/>
    </g>
    <g id="text_35">
     <!-- Depth 9 - Train -->
     <g transform="translate(217.99 633.225687) scale(0.1 -0.1)">
      <defs>
       <path id="DejaVuSans-39" d="M 703 97 
L 703 672 
Q 941 559 1184 500 
Q 1428 441 1663 441 
Q 2288 441 2617 861 
Q 2947 1281 2994 2138 
Q 2813 1869 2534 1725 
Q 2256 1581 1919 1581 
Q 1219 1581 811 2004 
Q 403 2428 403 3163 
Q 403 3881 828 4315 
Q 1253 4750 1959 4750 
Q 2769 4750 3195 4129 
Q 3622 3509 3622 2328 
Q 3622 1225 3098 567 
Q 2575 -91 1691 -91 
Q 1453 -91 1209 -44 
Q 966 3 703 97 
z
M 1959 2075 
Q 2384 2075 2632 2365 
Q 2881 2656 2881 3163 
Q 2881 3666 2632 3958 
Q 2384 4250 1959 4250 
Q 1534 4250 1286 3958 
Q 1038 3666 1038 3163 
Q 1038 2656 1286 2365 
Q 1534 2075 1959 2075 
z
" transform="scale(0.015625)"/>
      </defs>
      <use xlink:href="#DejaVuSans-44"/>
      <use xlink:href="#DejaVuSans-65" transform="translate(77.001953 0)"/>
      <use xlink:href="#DejaVuSans-70" transform="translate(138.525391 0)"/>
      <use xlink:href="#DejaVuSans-74" transform="translate(202.001953 0)"/>
      <use xlink:href="#DejaVuSans-68" transform="translate(241.210938 0)"/>
      <use xlink:href="#DejaVuSans-20" transform="translate(304.589844 0)"/>
      <use xlink:href="#DejaVuSans-39" transform="translate(336.376953 0)"/>
      <use xlink:href="#DejaVuSans-20" transform="translate(400 0)"/>
      <use xlink:href="#DejaVuSans-2d" transform="translate(431.787109 0)"/>
      <use xlink:href="#DejaVuSans-20" transform="translate(467.871094 0)"/>
      <use xlink:href="#DejaVuSans-54" transform="translate(499.658203 0)"/>
      <use xlink:href="#DejaVuSans-72" transform="translate(545.992188 0)"/>
      <use xlink:href="#DejaVuSans-61" transform="translate(587.105469 0)"/>
      <use xlink:href="#DejaVuSans-69" transform="translate(648.384766 0)"/>
      <use xlink:href="#DejaVuSans-6e" transform="translate(676.167969 0)"/>
     </g>
    </g>
    <g id="line2d_57">
     <path d="M 189.99 644.403812 
L 199.99 644.403812 
L 209.99 644.403812 
" style="fill: none; stroke-dasharray: 5.55,2.4; stroke-dashoffset: 0; stroke: #17becf; stroke-width: 1.5"/>
    </g>
    <g id="text_36">
     <!-- Depth 9 - CV -->
     <g transform="translate(217.99 647.903812) scale(0.1 -0.1)">
      <use xlink:href="#DejaVuSans-44"/>
      <use xlink:href="#DejaVuSans-65" transform="translate(77.001953 0)"/>
      <use xlink:href="#DejaVuSans-70" transform="translate(138.525391 0)"/>
      <use xlink:href="#DejaVuSans-74" transform="translate(202.001953 0)"/>
      <use xlink:href="#DejaVuSans-68" transform="translate(241.210938 0)"/>
      <use xlink:href="#DejaVuSans-20" transform="translate(304.589844 0)"/>
      <use xlink:href="#DejaVuSans-39" transform="translate(336.376953 0)"/>
      <use xlink:href="#DejaVuSans-20" transform="translate(400 0)"/>
      <use xlink:href="#DejaVuSans-2d" transform="translate(431.787109 0)"/>
      <use xlink:href="#DejaVuSans-20" transform="translate(467.871094 0)"/>
      <use xlink:href="#DejaVuSans-43" transform="translate(499.658203 0)"/>
      <use xlink:href="#DejaVuSans-56" transform="translate(569.482422 0)"/>
     </g>
    </g>
    <g id="line2d_58">
     <path d="M 189.99 659.081937 
L 199.99 659.081937 
L 209.99 659.081937 
" style="fill: none; stroke-dasharray: 1.5,2.475; stroke-dashoffset: 0; stroke: #1f77b4; stroke-width: 1.5"/>
    </g>
    <g id="text_37">
     <!-- Depth 9 - OOB -->
     <g transform="translate(217.99 662.581937) scale(0.1 -0.1)">
      <use xlink:href="#DejaVuSans-44"/>
      <use xlink:href="#DejaVuSans-65" transform="translate(77.001953 0)"/>
      <use xlink:href="#DejaVuSans-70" transform="translate(138.525391 0)"/>
      <use xlink:href="#DejaVuSans-74" transform="translate(202.001953 0)"/>
      <use xlink:href="#DejaVuSans-68" transform="translate(241.210938 0)"/>
      <use xlink:href="#DejaVuSans-20" transform="translate(304.589844 0)"/>
      <use xlink:href="#DejaVuSans-39" transform="translate(336.376953 0)"/>
      <use xlink:href="#DejaVuSans-20" transform="translate(400 0)"/>
      <use xlink:href="#DejaVuSans-2d" transform="translate(431.787109 0)"/>
      <use xlink:href="#DejaVuSans-20" transform="translate(467.871094 0)"/>
      <use xlink:href="#DejaVuSans-4f" transform="translate(499.658203 0)"/>
      <use xlink:href="#DejaVuSans-4f" transform="translate(578.369141 0)"/>
      <use xlink:href="#DejaVuSans-42" transform="translate(657.080078 0)"/>
     </g>
    </g>
    <g id="line2d_59">
     <path d="M 189.99 673.760062 
L 199.99 673.760062 
L 209.99 673.760062 
" style="fill: none; stroke: #ff7f0e; stroke-width: 1.5; stroke-linecap: square"/>
    </g>
    <g id="text_38">
     <!-- Depth 10 - Train -->
     <g transform="translate(217.99 677.260062) scale(0.1 -0.1)">
      <use xlink:href="#DejaVuSans-44"/>
      <use xlink:href="#DejaVuSans-65" transform="translate(77.001953 0)"/>
      <use xlink:href="#DejaVuSans-70" transform="translate(138.525391 0)"/>
      <use xlink:href="#DejaVuSans-74" transform="translate(202.001953 0)"/>
      <use xlink:href="#DejaVuSans-68" transform="translate(241.210938 0)"/>
      <use xlink:href="#DejaVuSans-20" transform="translate(304.589844 0)"/>
      <use xlink:href="#DejaVuSans-31" transform="translate(336.376953 0)"/>
      <use xlink:href="#DejaVuSans-30" transform="translate(400 0)"/>
      <use xlink:href="#DejaVuSans-20" transform="translate(463.623047 0)"/>
      <use xlink:href="#DejaVuSans-2d" transform="translate(495.410156 0)"/>
      <use xlink:href="#DejaVuSans-20" transform="translate(531.494141 0)"/>
      <use xlink:href="#DejaVuSans-54" transform="translate(563.28125 0)"/>
      <use xlink:href="#DejaVuSans-72" transform="translate(609.615234 0)"/>
      <use xlink:href="#DejaVuSans-61" transform="translate(650.728516 0)"/>
      <use xlink:href="#DejaVuSans-69" transform="translate(712.007812 0)"/>
      <use xlink:href="#DejaVuSans-6e" transform="translate(739.791016 0)"/>
     </g>
    </g>
    <g id="line2d_60">
     <path d="M 189.99 688.438187 
L 199.99 688.438187 
L 209.99 688.438187 
" style="fill: none; stroke-dasharray: 5.55,2.4; stroke-dashoffset: 0; stroke: #2ca02c; stroke-width: 1.5"/>
    </g>
    <g id="text_39">
     <!-- Depth 10 - CV -->
     <g transform="translate(217.99 691.938187) scale(0.1 -0.1)">
      <use xlink:href="#DejaVuSans-44"/>
      <use xlink:href="#DejaVuSans-65" transform="translate(77.001953 0)"/>
      <use xlink:href="#DejaVuSans-70" transform="translate(138.525391 0)"/>
      <use xlink:href="#DejaVuSans-74" transform="translate(202.001953 0)"/>
      <use xlink:href="#DejaVuSans-68" transform="translate(241.210938 0)"/>
      <use xlink:href="#DejaVuSans-20" transform="translate(304.589844 0)"/>
      <use xlink:href="#DejaVuSans-31" transform="translate(336.376953 0)"/>
      <use xlink:href="#DejaVuSans-30" transform="translate(400 0)"/>
      <use xlink:href="#DejaVuSans-20" transform="translate(463.623047 0)"/>
      <use xlink:href="#DejaVuSans-2d" transform="translate(495.410156 0)"/>
      <use xlink:href="#DejaVuSans-20" transform="translate(531.494141 0)"/>
      <use xlink:href="#DejaVuSans-43" transform="translate(563.28125 0)"/>
      <use xlink:href="#DejaVuSans-56" transform="translate(633.105469 0)"/>
     </g>
    </g>
    <g id="line2d_61">
     <path d="M 189.99 703.116312 
L 199.99 703.116312 
L 209.99 703.116312 
" style="fill: none; stroke-dasharray: 1.5,2.475; stroke-dashoffset: 0; stroke: #d62728; stroke-width: 1.5"/>
    </g>
    <g id="text_40">
     <!-- Depth 10 - OOB -->
     <g transform="translate(217.99 706.616312) scale(0.1 -0.1)">
      <use xlink:href="#DejaVuSans-44"/>
      <use xlink:href="#DejaVuSans-65" transform="translate(77.001953 0)"/>
      <use xlink:href="#DejaVuSans-70" transform="translate(138.525391 0)"/>
      <use xlink:href="#DejaVuSans-74" transform="translate(202.001953 0)"/>
      <use xlink:href="#DejaVuSans-68" transform="translate(241.210938 0)"/>
      <use xlink:href="#DejaVuSans-20" transform="translate(304.589844 0)"/>
      <use xlink:href="#DejaVuSans-31" transform="translate(336.376953 0)"/>
      <use xlink:href="#DejaVuSans-30" transform="translate(400 0)"/>
      <use xlink:href="#DejaVuSans-20" transform="translate(463.623047 0)"/>
      <use xlink:href="#DejaVuSans-2d" transform="translate(495.410156 0)"/>
      <use xlink:href="#DejaVuSans-20" transform="translate(531.494141 0)"/>
      <use xlink:href="#DejaVuSans-4f" transform="translate(563.28125 0)"/>
      <use xlink:href="#DejaVuSans-4f" transform="translate(641.992188 0)"/>
      <use xlink:href="#DejaVuSans-42" transform="translate(720.703125 0)"/>
     </g>
    </g>
   </g>
  </g>
 </g>
 <defs>
  <clipPath id="pabcaadc7e7">
   <rect x="180.99" y="96.768" width="1122.138" height="620.928"/>
  </clipPath>
 </defs>
</svg>
